<svg width="24" height="24" viewBox="0 0 24 24" fill="none" xmlns="http://www.w3.org/2000/svg">
<g clip-path="url(#clip0_93_45208)">
<g clip-path="url(#clip1_93_45208)">
<path fill-rule="evenodd" clip-rule="evenodd" d="M-0.0234375 11.9766C-0.0234375 5.34915 5.34915 -0.0234375 11.9766 -0.0234375V-0.0234375C18.604 -0.0234375 23.9766 5.34915 23.9766 11.9766V11.9766C23.9766 18.604 18.604 23.9766 11.9766 23.9766V23.9766C5.34915 23.9766 -0.0234375 18.604 -0.0234375 11.9766V11.9766Z" fill="black"/>
<path d="M12.3116 15.5736C12.5526 16.3151 12.7926 17.051 13.0316 17.7816C14.3034 18.2684 15.6154 18.4204 16.9676 18.2376C19.105 17.7162 20.313 16.3642 20.5916 14.1816C20.6337 12.6917 20.3457 11.2677 19.7276 9.90961C18.9224 8.27189 17.8264 6.85589 16.4396 5.66161C14.7808 4.18444 12.8448 3.28844 10.6316 2.97361C9.17744 2.77072 7.88144 3.12272 6.7436 4.02961C5.55805 5.17796 5.06206 6.5779 5.25558 8.2294L5.25553 8.22966C5.26379 8.42329 5.28779 8.61529 5.32753 8.80566C5.35152 8.43813 5.35154 7.70196 5.35154 7.70196C5.35154 7.70196 5.35952 7.86241 5.3516 7.70161C5.34368 7.54081 5.3517 7.38082 5.3756 7.22161C5.81802 5.25913 7.02599 4.09911 8.9996 3.74161C10.191 3.65853 11.343 3.83453 12.4556 4.26961C15.1167 5.4266 17.0927 7.30661 18.3836 9.90961C18.8573 10.9145 19.0493 11.9705 18.9596 13.0776C18.7664 14.1506 18.1504 14.8466 17.1116 15.1656C15.8676 15.4275 14.6996 15.2436 13.6076 14.6136C13.1666 14.922 12.7346 15.242 12.3116 15.5736Z" fill="#FAD586"/>
<path fill-rule="evenodd" clip-rule="evenodd" d="M13.606 14.6157C13.165 14.9241 12.733 15.2441 12.31 15.5757C12.551 16.3171 12.791 17.0531 13.03 17.7837C13.0808 17.9922 13.1367 18.2002 13.198 18.4077C13.2945 18.7291 13.2065 18.9771 12.934 19.1517C12.6973 19.3187 12.4733 19.3028 12.262 19.1037C11.4903 18.506 10.6983 17.938 9.886 17.3997C8.98249 18.0149 8.07851 18.631 7.174 19.2477C6.64417 19.2227 6.42817 18.9427 6.526 18.4077C6.81726 17.4619 7.11323 16.5179 7.414 15.5757C6.55556 14.9421 5.69953 14.3021 4.846 13.6557C4.69344 13.2984 4.78145 13.0185 5.11 12.8157C6.18236 12.8076 7.25435 12.7836 8.326 12.7437C8.6522 11.837 8.9642 10.925 9.262 10.0077C9.42587 9.53783 9.73787 9.4018 10.198 9.59966C10.3159 9.71524 10.4039 9.85122 10.462 10.0077C10.757 10.9325 11.037 11.8605 11.302 12.7917C12.4411 12.7691 13.5771 12.7931 14.71 12.8637C14.9511 13.0884 15.0071 13.3524 14.878 13.6557C14.4655 13.9936 14.0415 14.3136 13.606 14.6157Z" fill="#FDAB32"/>
</g>
</g>
<defs>
<clipPath id="clip0_93_45208">
<rect width="24" height="24" fill="white"/>
</clipPath>
<clipPath id="clip1_93_45208">
<rect width="24" height="24" fill="white"/>
</clipPath>
</defs>
</svg>
