<svg width="24" height="24" viewBox="0 0 24 24" fill="none" xmlns="http://www.w3.org/2000/svg">
<g clip-path="url(#clip0_2233_264)">
<path d="M11.9884 23.9768C18.6094 23.9768 23.9768 18.6094 23.9768 11.9884C23.9768 5.36738 18.6094 0 11.9884 0C5.36738 0 0 5.36738 0 11.9884C0 18.6094 5.36738 23.9768 11.9884 23.9768Z" fill="#FEFEFE" fill-opacity="0.996078"/>
<path fill-rule="evenodd" clip-rule="evenodd" d="M13.9415 8.50532C12.0381 7.40638 9.60423 8.05854 8.50532 9.96194C7.40641 11.8653 8.05854 14.2992 9.96194 15.3981C11.8653 16.497 14.2992 15.8449 15.3981 13.9415L16.1443 12.6491L18.7291 14.1414L17.9829 15.4338C16.0598 18.7648 11.8005 19.906 8.46961 17.9829C5.13867 16.0598 3.9974 11.8005 5.92052 8.46961C7.84364 5.13867 12.1029 3.9974 15.4338 5.92052C17.1052 6.88548 18.3105 8.45586 18.7162 10.2981L19.0373 11.7555L16.1225 12.3975L15.8014 10.9401C15.589 9.97567 14.9411 9.08245 13.9415 8.50532Z" fill="#282828"/>
<path d="M17.2002 4.83937V4.74609H17.8514V4.83937H17.5784V5.61438H17.4732V4.83937H17.2002Z" fill="#282828"/>
<path d="M18.0137 5.61438V4.74609H18.5377V4.83937H18.1188V5.13276H18.5105V5.22602H18.1188V5.52109H18.5445V5.61438H18.0137Z" fill="#282828"/>
<path d="M19.2026 4.96332C19.1975 4.92036 19.1769 4.88699 19.1407 4.86326C19.1045 4.83952 19.0601 4.82766 19.0075 4.82766C18.9691 4.82766 18.9355 4.83388 18.9066 4.84629C18.8781 4.85873 18.8558 4.87583 18.8397 4.89759C18.8238 4.91937 18.8159 4.9441 18.8159 4.97178C18.8159 4.99498 18.8214 5.0149 18.8324 5.03157C18.8437 5.04796 18.8582 5.06166 18.8757 5.07269C18.8932 5.08345 18.9116 5.09234 18.9308 5.09941C18.95 5.10619 18.9677 5.1117 18.9838 5.11593L19.072 5.13968C19.0946 5.14562 19.1198 5.15381 19.1475 5.16426C19.1754 5.17474 19.2021 5.18899 19.2276 5.2071C19.2533 5.2249 19.2745 5.24779 19.2912 5.27577C19.3079 5.30375 19.3162 5.3381 19.3162 5.3788C19.3162 5.42572 19.3039 5.4681 19.2793 5.50598C19.255 5.54385 19.2194 5.57395 19.1725 5.59628C19.1258 5.61862 19.0692 5.62978 19.0025 5.62978C18.9403 5.62978 18.8864 5.61973 18.8409 5.59968C18.7957 5.57961 18.7601 5.55163 18.7341 5.51572C18.7084 5.47984 18.6938 5.43816 18.6904 5.39066H18.7989C18.8018 5.42345 18.8128 5.45057 18.832 5.47205C18.8515 5.49326 18.8761 5.5091 18.9058 5.51955C18.9357 5.52972 18.968 5.53481 19.0025 5.53481C19.0426 5.53481 19.0786 5.52831 19.1106 5.51529C19.1425 5.50202 19.1678 5.48364 19.1864 5.46019C19.2051 5.43644 19.2144 5.40874 19.2144 5.37709C19.2144 5.34828 19.2064 5.32481 19.1903 5.30672C19.1742 5.28864 19.153 5.27393 19.1267 5.26263C19.1004 5.25132 19.072 5.24142 19.0415 5.23296L18.9346 5.20241C18.8668 5.18292 18.8131 5.15509 18.7735 5.1189C18.7339 5.08271 18.7142 5.03539 18.7142 4.97687C18.7142 4.92826 18.7273 4.88588 18.7536 4.84969C18.7802 4.81322 18.8158 4.78497 18.8604 4.7649C18.9054 4.74455 18.9555 4.73438 19.0109 4.73438C19.0669 4.73438 19.1166 4.7444 19.1602 4.76447C19.2037 4.78426 19.2382 4.81139 19.2636 4.84589C19.2893 4.88036 19.3029 4.9195 19.3043 4.96332H19.2026Z" fill="#282828"/>
<path d="M19.4414 4.83937V4.74609H20.0926V4.83937H19.8196V5.61438H19.7144V4.83937H19.4414Z" fill="#282828"/>
<path d="M18.5645 6.23828V7.10656H18.4627L17.9896 6.42484H17.9811V7.10656H17.876V6.23828H17.9777L18.4526 6.92171H18.461V6.23828H18.5645Z" fill="#282828"/>
<path d="M18.7754 7.10656V6.23828H19.2994V6.33156H18.8805V6.62495H19.2723V6.71821H18.8805V7.01328H19.3062V7.10656H18.7754Z" fill="#282828"/>
<path d="M19.4414 6.33156V6.23828H20.0926V6.33156H19.8196V7.10656H19.7144V6.33156H19.4414Z" fill="#282828"/>
</g>
<defs>
<clipPath id="clip0_2233_264">
<rect width="24" height="24" fill="white"/>
</clipPath>
</defs>
</svg>
