<svg width="24" height="24" viewBox="0 0 24 24" fill="none" xmlns="http://www.w3.org/2000/svg">
<g clip-path="url(#clip0_2420_217)">
<mask id="mask0_2420_217" style="mask-type:luminance" maskUnits="userSpaceOnUse" x="0" y="0" width="24" height="24">
<path d="M24 0H0V24H24V0Z" fill="white"/>
</mask>
<g mask="url(#mask0_2420_217)">
<path d="M12 24C18.6274 24 24 18.6274 24 12C24 5.37258 18.6274 0 12 0C5.37258 0 0 5.37258 0 12C0 18.6274 5.37258 24 12 24Z" fill="#FEFEFE"/>
<g opacity="0.75">
<path fill-rule="evenodd" clip-rule="evenodd" d="M5.16052 5.7609C5.20428 5.72642 5.26771 5.73394 5.30219 5.77774L11.8997 14.1508C11.9342 14.1946 11.9267 14.258 11.8829 14.2925C11.8391 14.327 11.7757 14.3194 11.7413 14.2757L5.14372 5.90259C5.10923 5.85885 5.11676 5.79542 5.16052 5.7609Z" fill="#2C2C2C"/>
<path fill-rule="evenodd" clip-rule="evenodd" d="M20.4237 8.04798C20.4562 8.09326 20.4458 8.15628 20.4005 8.18873L11.8794 14.2953C11.8341 14.3277 11.7711 14.3173 11.7386 14.272C11.7062 14.2267 11.7166 14.1637 11.7618 14.1313L20.2829 8.02475C20.3283 7.9923 20.3913 8.0027 20.4237 8.04798Z" fill="#2C2C2C"/>
<path fill-rule="evenodd" clip-rule="evenodd" d="M15.3157 7.51045C15.3651 7.53622 15.3843 7.59717 15.3585 7.64658L11.9101 14.2595C11.8843 14.3088 11.8233 14.328 11.774 14.3023C11.7246 14.2765 11.7054 14.2156 11.7312 14.1662L15.1796 7.5533C15.2053 7.50389 15.2663 7.48473 15.3157 7.51045Z" fill="#2C2C2C"/>
<path fill-rule="evenodd" clip-rule="evenodd" d="M10.1412 6.76518C10.1956 6.75295 10.2496 6.78705 10.2618 6.84138L11.9188 14.1911C11.9311 14.2455 11.8969 14.2995 11.8426 14.3118C11.7882 14.324 11.7342 14.2899 11.722 14.2355L10.065 6.88577C10.0527 6.83145 10.0869 6.77742 10.1412 6.76518Z" fill="#2C2C2C"/>
</g>
<path d="M13.7998 1.18044C4.95579 -0.19861 2.17309 6.9641 4.39233 8.11923C6.28624 9.10518 8.37205 5.78461 8.37205 5.78461C8.37205 5.78461 13.022 5.65644 13.7995 1.18204C13.0242 5.65679 17.3591 7.34413 17.3591 7.34413C17.3591 7.34413 18.2042 11.1733 20.3196 10.8831C22.7978 10.5431 22.5909 2.86162 13.7998 1.18044Z" fill="url(#paint0_linear_2420_217)"/>
<path d="M13.8 1.18087C5.82211 0.832219 5.55285 5.7083 6.6436 7.19022C7.71172 8.64068 9.46378 7.7346 9.46378 7.7346C9.46378 7.7346 13.022 5.65793 13.7997 1.183C13.0242 5.65776 15.6748 8.81235 15.6748 8.81235C15.6748 8.81235 17.0191 10.2558 18.5135 9.24996C20.0397 8.22222 21.4285 3.54032 13.8 1.18087Z" fill="url(#paint1_linear_2420_217)"/>
<path d="M13.8002 1.18066C7.11455 3.00005 8.15305 7.09331 9.82892 7.85274C11.2055 8.47662 12.7394 7.294 12.74 7.29359C12.7399 7.29412 13.7862 8.92447 15.2925 8.8008C17.1252 8.65018 19.482 5.14616 13.8002 1.18066Z" fill="url(#paint2_linear_2420_217)"/>
<path d="M12.496 8.42567C14.7382 8.81481 16.6068 4.96805 13.7994 1.18066C9.88013 3.8008 10.3429 8.05207 12.5852 8.44115" fill="url(#paint3_linear_2420_217)"/>
<path d="M11.9148 22.9585C15.4193 22.9585 18.2603 20.1175 18.2603 16.613C18.2603 13.1085 15.4193 10.2676 11.9148 10.2676C8.41027 10.2676 5.56934 13.1085 5.56934 16.613C5.56934 20.1175 8.41027 22.9585 11.9148 22.9585Z" fill="#323232"/>
<path d="M15.7863 16.8002C15.7863 14.5778 13.9951 12.7764 11.7856 12.7764C9.57607 12.7764 7.69922 14.5778 7.69922 16.8002V19.3116C7.69898 19.3967 7.7325 19.4785 7.79238 19.5387C7.85226 19.5989 7.93354 19.6326 8.0182 19.6323H8.47384C8.55849 19.6326 8.63977 19.5989 8.69965 19.5387C8.75953 19.4785 8.79305 19.3967 8.79282 19.3116V17.2254C8.79282 17.0482 8.93563 16.9046 9.11179 16.9046H9.76062C9.93678 16.9046 10.0796 17.0482 10.0796 17.2254V19.3116C10.0794 19.3967 10.1129 19.4785 10.1728 19.5387C10.2326 19.5989 10.3139 19.6326 10.3986 19.6323H10.8542C10.9389 19.6326 11.0201 19.5989 11.08 19.5387C11.1398 19.4785 11.1734 19.3967 11.1731 19.3116V18.6782C11.1731 18.0445 11.5092 17.459 12.0549 17.1422C12.6004 16.8254 13.2727 16.8254 13.8182 17.1422C14.3638 17.459 14.6999 18.0445 14.6999 18.6782V19.3116C14.6999 19.4887 14.8427 19.6323 15.0189 19.6323H15.4691C15.6453 19.6323 15.788 19.4887 15.788 19.3116L15.7863 16.8002ZM10.0021 15.9436C9.94245 16.0405 9.86058 16.1215 9.76334 16.1801C9.59398 16.2778 9.39057 16.2963 9.20655 16.2305C9.17983 16.2221 9.15435 16.2101 9.13088 16.1948C8.92074 16.0787 8.7901 15.8566 8.7901 15.6155C8.7901 15.3743 8.92074 15.1522 9.13088 15.0362C9.15548 15.0204 9.18214 15.0084 9.21021 15.0004C9.44939 14.9159 9.71563 14.9756 9.8964 15.1544C10.0235 15.2725 10.0956 15.4387 10.0951 15.6127C10.0949 15.7295 10.0627 15.844 10.0021 15.9436Z" fill="#C3C3C3"/>
<path d="M16.1417 16.8002C16.1417 14.5778 14.3506 12.7764 12.1411 12.7764C9.93154 12.7764 8.05469 14.5778 8.05469 16.8002V19.3116C8.05445 19.3967 8.08797 19.4785 8.14785 19.5387C8.20773 19.5989 8.28901 19.6326 8.37366 19.6323H8.82931C8.91396 19.6326 8.99524 19.5989 9.05512 19.5387C9.115 19.4785 9.14852 19.3967 9.14828 19.3116V17.2254C9.14828 17.0482 9.2911 16.9046 9.46726 16.9046H10.1161C10.2922 16.9046 10.4351 17.0482 10.4351 17.2254V19.3116C10.4348 19.3967 10.4683 19.4785 10.5282 19.5387C10.588 19.5989 10.6693 19.6326 10.754 19.6323H11.2097C11.2943 19.6326 11.3756 19.5989 11.4354 19.5387C11.4953 19.4785 11.5288 19.3967 11.5286 19.3116V18.6782C11.5286 18.0445 11.8647 17.459 12.4103 17.1422C12.9559 16.8254 13.6281 16.8254 14.1737 17.1422C14.7193 17.459 15.0554 18.0445 15.0554 18.6782V19.3116C15.0554 19.4887 15.1982 19.6323 15.3743 19.6323H15.8246C16.0008 19.6323 16.1435 19.4887 16.1435 19.3116L16.1417 16.8002ZM10.3576 15.9436C10.2979 16.0405 10.216 16.1215 10.1188 16.1801C9.94945 16.2778 9.74604 16.2963 9.56202 16.2305C9.53524 16.2221 9.50982 16.2101 9.48635 16.1948C9.27621 16.0787 9.14557 15.8566 9.14557 15.6155C9.14557 15.3743 9.27621 15.1522 9.48635 15.0362C9.51089 15.0204 9.5376 15.0084 9.56562 15.0004C9.80486 14.9159 10.0711 14.9756 10.2519 15.1544C10.379 15.2725 10.451 15.4387 10.4506 15.6127C10.4503 15.7295 10.4182 15.844 10.3576 15.9436Z" fill="#FCFCFC"/>
</g>
</g>
<defs>
<linearGradient id="paint0_linear_2420_217" x1="12.6747" y1="1.00488" x2="12.6747" y2="10.8987" gradientUnits="userSpaceOnUse">
<stop stop-color="#F7C3A1"/>
<stop offset="1" stop-color="#DF9BE8"/>
</linearGradient>
<linearGradient id="paint1_linear_2420_217" x1="12.9452" y1="1.16308" x2="12.9452" y2="9.60618" gradientUnits="userSpaceOnUse">
<stop stop-color="#F7C3A1"/>
<stop offset="0.715705" stop-color="#DF9BE8"/>
</linearGradient>
<linearGradient id="paint2_linear_2420_217" x1="12.9752" y1="1.18066" x2="12.9752" y2="8.80748" gradientUnits="userSpaceOnUse">
<stop offset="0.330491" stop-color="#F7C3A1"/>
<stop offset="1" stop-color="#DF9BE8"/>
</linearGradient>
<linearGradient id="paint3_linear_2420_217" x1="13.0436" y1="1.18066" x2="13.0436" y2="8.45292" gradientUnits="userSpaceOnUse">
<stop stop-color="#F7C3A1"/>
<stop offset="0.801501" stop-color="#DF9BE8"/>
</linearGradient>
<clipPath id="clip0_2420_217">
<rect width="24" height="24" rx="12" fill="white"/>
</clipPath>
</defs>
</svg>
