<svg width="24" height="24" viewBox="0 0 24 24" fill="none" xmlns="http://www.w3.org/2000/svg">
<g clip-path="url(#clip0_93_45202)">
<circle cx="12" cy="12" r="12" fill="white"/>
<path d="M12 1.01734C18.0657 1.01734 22.9827 5.93434 22.9827 12C22.9827 18.0657 18.0657 22.9827 12 22.9827C5.93434 22.9827 1.01734 18.0657 1.01734 12C1.01734 5.93434 5.93434 1.01734 12 1.01734ZM12 0C10.3806 0 8.80879 0.317225 7.32855 0.943353C5.89965 1.54775 4.61642 2.41295 3.51445 3.51445C2.41295 4.61595 1.54775 5.89919 0.943353 7.32855C0.317225 8.80879 0 10.3806 0 12C0 13.6194 0.317225 15.1912 0.943353 16.6714C1.54775 18.1003 2.41295 19.3836 3.51445 20.4855C4.61595 21.5871 5.89919 22.4523 7.32855 23.0566C8.80879 23.6828 10.3801 24 12 24C13.6199 24 15.1912 23.6828 16.6714 23.0566C18.1003 22.4523 19.3836 21.5871 20.4855 20.4855C21.5871 19.3836 22.4523 18.1008 23.0566 16.6714C23.6828 15.1912 24 13.6199 24 12C24 10.3801 23.6828 8.80879 23.0566 7.32855C22.4523 5.89965 21.5871 4.61642 20.4855 3.51445C19.3836 2.41295 18.1008 1.54775 16.6714 0.943353C15.1912 0.317225 13.6194 0 12 0Z" fill="black"/>
<path d="M5.9693 16.4783C5.9693 16.4783 5.55034 15.7366 5.43427 15.4883C5.43427 15.4883 4.8604 17.3445 4.79843 17.572C4.73647 17.7995 4.62271 18.2439 4.62271 18.2439C4.62271 18.2439 4.43682 18.5852 5.07774 18.6883C5.71867 18.7914 6.00814 18.6883 6.00814 18.6883C6.00814 18.6883 6.29762 18.5227 6.21485 18.0367C6.13208 17.5507 5.9693 16.4779 5.9693 16.4779V16.4783Z" fill="black"/>
<path d="M21.3604 13.1067C20.2103 12.2766 19.9056 11.1418 19.826 10.543C19.8404 10.1814 19.8556 9.92193 19.8556 9.92193C19.8556 9.92193 19.7576 8.89303 19.6799 8.62944C19.6799 8.62944 20.011 7.91592 19.8404 7.32124C19.6697 6.72655 19.3391 5.87892 19.3391 5.87892C19.3391 5.87892 19.0857 5.53765 18.8272 5.41372C18.5687 5.28979 17.9588 4.83985 17.9588 4.83985C17.9588 4.83985 17.783 4.73118 17.6383 4.83985C17.4935 4.94852 17.3178 5.10852 17.3178 5.10852L17.1264 5.08262C17.1264 5.08262 16.8318 5.11361 16.7384 5.18066C16.7384 5.18066 16.5109 5.07199 16.2112 5.07707C16.2112 5.07707 15.9837 4.54991 14.4794 4.23962C14.4794 4.23962 13.5953 4.038 12.7477 4.63777C12.682 4.68447 12.6209 4.72794 12.5641 4.7691C12.3319 4.95268 11.2323 5.82806 10.9308 6.15453C10.5932 6.51985 10.5229 7.26112 10.7731 7.61072L11.3932 8.49488C11.3932 8.49488 12.0184 9.44193 12.1063 9.49095C12.1063 9.49095 12.2908 9.64771 12.177 9.62181C12.0633 9.59592 11.1509 8.78667 10.75 8.23638C10.2616 7.5654 10.1553 7.09141 10.4295 6.49673C10.6505 6.01765 11.1315 5.59083 11.5074 5.3291C10.9021 5.2343 9.55228 5.03869 9.10835 5.09835C8.52939 5.17603 6.97332 5.1654 5.64985 6.57164C5.64985 6.57164 5.0917 7.03684 4.46095 8.22621C4.46095 8.22621 4.41147 8.29973 4.23898 8.7617C4.01147 9.43037 3.77193 10.4029 3.84962 11.6144L3.71875 15.6953C3.71875 15.6953 3.73262 16.2951 3.82927 16.3779C3.92592 16.4607 4.15482 16.3779 4.15482 16.3779C4.15482 16.3779 4.18395 16.3159 4.15482 15.8197C4.12569 15.3235 4.37216 14.4546 4.32129 14.0759C4.27644 13.7434 4.31389 13.1557 4.59366 12.4671C4.73378 12.9666 4.92106 13.5053 5.16892 14.0792C6.7458 17.7291 6.67875 17.5483 6.67875 17.5483C6.67875 17.5483 6.87066 17.786 6.67875 18.2257C6.67875 18.2257 6.66303 18.21 6.64731 18.4482C6.63158 18.6859 6.65748 18.7894 6.65748 18.7894L6.91598 19.1617C6.91598 19.1617 7.03482 19.3943 7.54673 19.3994C8.05863 19.4045 8.48268 19.3786 8.48268 19.3786C8.48268 19.3786 8.56546 19.3578 8.57563 19.2805C8.5858 19.2029 8.57563 18.536 8.57563 18.536C8.57563 18.536 8.08962 17.9571 8.03783 17.8382C7.98603 17.7194 7.69147 15.9252 7.72245 14.9069C7.72245 14.9069 9.62996 14.7155 10.4522 14.1934C10.4522 14.1934 10.4882 17.0267 10.2663 17.6625C10.0438 18.2983 10.0179 18.3552 10.0179 18.3552C10.0179 18.3552 9.88337 18.3913 9.82141 18.6655C9.75944 18.9397 9.75436 19.2602 9.75436 19.2602C9.75436 19.2602 9.88892 19.5497 10.1886 19.5857C10.4882 19.6218 11.1814 19.6375 11.1814 19.6375C11.1814 19.6375 11.6623 19.5807 11.7192 19.4308C11.7192 19.4308 11.8172 18.6812 11.7451 18.5055C11.6725 18.3298 11.6004 18.2988 11.6004 18.2988C11.6004 18.2988 12.8207 14.0852 12.8258 13.8373C12.8309 13.589 13.1671 12.9379 13.2549 12.8653C13.3428 12.7927 13.648 13.0151 13.7562 13.7703C13.8649 14.5249 14.0716 17.3171 14.0716 17.3171L14.3352 17.7051C14.3352 17.7051 14.3712 17.7411 14.2991 17.8757C14.2265 18.0103 14.0457 18.2068 14.0665 18.3256C14.0873 18.4445 14.0304 18.8583 14.423 19.0392C14.8161 19.22 15.7363 19.127 16.005 18.8066C16.2737 18.4861 16.2168 18.5481 16.2168 18.5481C16.2168 18.5481 16.2478 18.4033 16.196 18.2896C16.196 18.2896 16.227 18.1915 16.0924 18.0879L15.7044 17.8294L15.6942 12.4579C15.6942 12.4579 15.5745 12.0852 15.5907 11.675C15.7007 11.7837 15.7946 11.8549 15.832 11.8581C15.9148 11.8651 16.0665 11.8392 16.1886 11.9719C16.2838 12.075 16.4263 12.0995 16.5298 12.0306C16.6334 11.9617 16.7833 12.0116 16.7833 12.0116C16.7833 12.0116 16.9918 12.1374 17.1296 12.1203C17.2674 12.1032 17.3123 11.8896 17.1675 11.7268C17.0228 11.564 16.971 11.269 16.9192 11.0933C16.9003 11.0285 16.8568 10.924 16.8101 10.8177C16.9659 10.8149 17.1486 10.8019 17.3585 10.7723C17.3585 10.7723 18.4392 12.7474 18.5992 14.598L18.7597 16.4486C18.7597 16.4486 18.8993 17.4877 19.8815 17.4724L20.0471 17.4674C20.0471 17.4674 20.2954 17.3434 20.2589 17.1002C20.2228 16.8574 20.104 16.826 20.104 16.826C20.104 16.826 19.6697 16.6965 19.7007 16.5314C19.7317 16.3672 19.9555 13.2394 19.8533 12.5171C20.3712 13.1881 20.9035 13.3263 21.1379 13.3157C21.4792 13.3 21.3604 13.109 21.3604 13.109V13.1067Z" fill="black"/>
</g>
<defs>
<clipPath id="clip0_93_45202">
<rect width="24" height="24" fill="white"/>
</clipPath>
</defs>
</svg>
